<svg width="232" height="231" viewBox="0 0 232 231" fill="none" xmlns="http://www.w3.org/2000/svg">
<path d="M100.5 76.5C96.02 76.5 92.5 72.98 92.5 68.5C92.5 64.02 96.02 60.5 100.5 60.5C104.98 60.5 108.5 64.02 108.5 68.5C108.5 72.98 104.98 76.5 100.5 76.5ZM116.5 76.5C112.02 76.5 108.5 72.98 108.5 68.5C108.5 64.02 112.02 60.5 116.5 60.5C120.98 60.5 124.5 64.02 124.5 68.5C124.5 72.98 120.98 76.5 116.5 76.5ZM132.5 76.5C128.02 76.5 124.5 72.98 124.5 68.5C124.5 64.02 128.02 60.5 132.5 60.5C136.98 60.5 140.5 64.02 140.5 68.5C140.5 72.98 136.98 76.5 132.5 76.5ZM84.5 100.5C80.02 100.5 76.5 96.98 76.5 92.5C76.5 88.02 80.02 84.5 84.5 84.5C88.98 84.5 92.5 88.02 92.5 92.5C92.5 96.98 88.98 100.5 84.5 100.5ZM148.5 100.5C144.02 100.5 140.5 96.98 140.5 92.5C140.5 88.02 144.02 84.5 148.5 84.5C152.98 84.5 156.5 88.02 156.5 92.5C156.5 96.98 152.98 100.5 148.5 100.5ZM84.5 124.5C80.02 124.5 76.5 120.98 76.5 116.5C76.5 112.02 80.02 108.5 84.5 108.5C88.98 108.5 92.5 112.02 92.5 116.5C92.5 120.98 88.98 124.5 84.5 124.5ZM148.5 124.5C144.02 124.5 140.5 120.98 140.5 116.5C140.5 112.02 144.02 108.5 148.5 108.5C152.98 108.5 156.5 112.02 156.5 116.5C156.5 120.98 152.98 124.5 148.5 124.5ZM84.5 148.5C80.02 148.5 76.5 144.98 76.5 140.5C76.5 136.02 80.02 132.5 84.5 132.5C88.98 132.5 92.5 136.02 92.5 140.5C92.5 144.98 88.98 148.5 84.5 148.5ZM148.5 148.5C144.02 148.5 140.5 144.98 140.5 140.5C140.5 136.02 144.02 132.5 148.5 132.5C152.98 132.5 156.5 136.02 156.5 140.5C156.5 144.98 152.98 148.5 148.5 148.5ZM100.5 172.5C96.02 172.5 92.5 168.98 92.5 164.5C92.5 160.02 96.02 156.5 100.5 156.5C104.98 156.5 108.5 160.02 108.5 164.5C108.5 168.98 104.98 172.5 100.5 172.5ZM116.5 172.5C112.02 172.5 108.5 168.98 108.5 164.5C108.5 160.02 112.02 156.5 116.5 156.5C120.98 156.5 124.5 160.02 124.5 164.5C124.5 168.98 120.98 172.5 116.5 172.5ZM132.5 172.5C128.02 172.5 124.5 168.98 124.5 164.5C124.5 160.02 128.02 156.5 132.5 156.5C136.98 156.5 140.5 160.02 140.5 164.5C140.5 168.98 136.98 172.5 132.5 172.5Z" fill="#E3E3E3"/>
</svg>
