<svg width="231" height="231" viewBox="0 0 231 231" fill="none" xmlns="http://www.w3.org/2000/svg">
<path d="M123.5 75.5C119.02 75.5 115.5 71.98 115.5 67.5C115.5 63.02 119.02 59.5 123.5 59.5C127.98 59.5 131.5 63.02 131.5 67.5C131.5 71.98 127.98 75.5 123.5 75.5ZM107.5 99.5C103.02 99.5 99.5 95.98 99.5 91.5C99.5 87.02 103.02 83.5 107.5 83.5C111.98 83.5 115.5 87.02 115.5 91.5C115.5 95.98 111.98 99.5 107.5 99.5ZM123.5 99.5C119.02 99.5 115.5 95.98 115.5 91.5C115.5 87.02 119.02 83.5 123.5 83.5C127.98 83.5 131.5 87.02 131.5 91.5C131.5 95.98 127.98 99.5 123.5 99.5ZM91.5 123.5C87.02 123.5 83.5 119.98 83.5 115.5C83.5 111.02 87.02 107.5 91.5 107.5C95.98 107.5 99.5 111.02 99.5 115.5C99.5 119.98 95.98 123.5 91.5 123.5ZM123.5 123.5C119.02 123.5 115.5 119.98 115.5 115.5C115.5 111.02 119.02 107.5 123.5 107.5C127.98 107.5 131.5 111.02 131.5 115.5C131.5 119.98 127.98 123.5 123.5 123.5ZM91.5 147.5C87.02 147.5 83.5 143.98 83.5 139.5C83.5 135.02 87.02 131.5 91.5 131.5C95.98 131.5 99.5 135.02 99.5 139.5C99.5 143.98 95.98 147.5 91.5 147.5ZM107.5 147.5C103.02 147.5 99.5 143.98 99.5 139.5C99.5 135.02 103.02 131.5 107.5 131.5C111.98 131.5 115.5 135.02 115.5 139.5C115.5 143.98 111.98 147.5 107.5 147.5ZM123.5 147.5C119.02 147.5 115.5 143.98 115.5 139.5C115.5 135.02 119.02 131.5 123.5 131.5C127.98 131.5 131.5 135.02 131.5 139.5C131.5 143.98 127.98 147.5 123.5 147.5ZM139.5 147.5C135.02 147.5 131.5 143.98 131.5 139.5C131.5 135.02 135.02 131.5 139.5 131.5C143.98 131.5 147.5 135.02 147.5 139.5C147.5 143.98 143.98 147.5 139.5 147.5ZM123.5 171.5C119.02 171.5 115.5 167.98 115.5 163.5C115.5 159.02 119.02 155.5 123.5 155.5C127.98 155.5 131.5 159.02 131.5 163.5C131.5 167.98 127.98 171.5 123.5 171.5Z" fill="#E3E3E3"/>
</svg>
