<svg width="231" height="231" viewBox="0 0 231 231" fill="none" xmlns="http://www.w3.org/2000/svg">
<path d="M115.5 75.5C111.02 75.5 107.5 71.98 107.5 67.5C107.5 63.02 111.02 59.5 115.5 59.5C119.98 59.5 123.5 63.02 123.5 67.5C123.5 71.98 119.98 75.5 115.5 75.5ZM131.5 75.5C127.02 75.5 123.5 71.98 123.5 67.5C123.5 63.02 127.02 59.5 131.5 59.5C135.98 59.5 139.5 63.02 139.5 67.5C139.5 71.98 135.98 75.5 131.5 75.5ZM99.5 99.5C95.02 99.5 91.5 95.98 91.5 91.5C91.5 87.02 95.02 83.5 99.5 83.5C103.98 83.5 107.5 87.02 107.5 91.5C107.5 95.98 103.98 99.5 99.5 99.5ZM83.5 123.5C79.02 123.5 75.5 119.98 75.5 115.5C75.5 111.02 79.02 107.5 83.5 107.5C87.98 107.5 91.5 111.02 91.5 115.5C91.5 119.98 87.98 123.5 83.5 123.5ZM99.5 123.5C95.02 123.5 91.5 119.98 91.5 115.5C91.5 111.02 95.02 107.5 99.5 107.5C103.98 107.5 107.5 111.02 107.5 115.5C107.5 119.98 103.98 123.5 99.5 123.5ZM115.5 123.5C111.02 123.5 107.5 119.98 107.5 115.5C107.5 111.02 111.02 107.5 115.5 107.5C119.98 107.5 123.5 111.02 123.5 115.5C123.5 119.98 119.98 123.5 115.5 123.5ZM131.5 123.5C127.02 123.5 123.5 119.98 123.5 115.5C123.5 111.02 127.02 107.5 131.5 107.5C135.98 107.5 139.5 111.02 139.5 115.5C139.5 119.98 135.98 123.5 131.5 123.5ZM83.5 147.5C79.02 147.5 75.5 143.98 75.5 139.5C75.5 135.02 79.02 131.5 83.5 131.5C87.98 131.5 91.5 135.02 91.5 139.5C91.5 143.98 87.98 147.5 83.5 147.5ZM147.5 147.5C143.02 147.5 139.5 143.98 139.5 139.5C139.5 135.02 143.02 131.5 147.5 131.5C151.98 131.5 155.5 135.02 155.5 139.5C155.5 143.98 151.98 147.5 147.5 147.5ZM99.5 171.5C95.02 171.5 91.5 167.98 91.5 163.5C91.5 159.02 95.02 155.5 99.5 155.5C103.98 155.5 107.5 159.02 107.5 163.5C107.5 167.98 103.98 171.5 99.5 171.5ZM115.5 171.5C111.02 171.5 107.5 167.98 107.5 163.5C107.5 159.02 111.02 155.5 115.5 155.5C119.98 155.5 123.5 159.02 123.5 163.5C123.5 167.98 119.98 171.5 115.5 171.5ZM131.5 171.5C127.02 171.5 123.5 167.98 123.5 163.5C123.5 159.02 127.02 155.5 131.5 155.5C135.98 155.5 139.5 159.02 139.5 163.5C139.5 167.98 135.98 171.5 131.5 171.5Z" fill="#E3E3E3"/>
</svg>
