<svg width="231" height="231" viewBox="0 0 231 231" fill="none" xmlns="http://www.w3.org/2000/svg">
<path d="M83.5 75.5C79.02 75.5 75.5 71.98 75.5 67.5C75.5 63.02 79.02 59.5 83.5 59.5C87.98 59.5 91.5 63.02 91.5 67.5C91.5 71.98 87.98 75.5 83.5 75.5ZM99.5 75.5C95.02 75.5 91.5 71.98 91.5 67.5C91.5 63.02 95.02 59.5 99.5 59.5C103.98 59.5 107.5 63.02 107.5 67.5C107.5 71.98 103.98 75.5 99.5 75.5ZM115.5 75.5C111.02 75.5 107.5 71.98 107.5 67.5C107.5 63.02 111.02 59.5 115.5 59.5C119.98 59.5 123.5 63.02 123.5 67.5C123.5 71.98 119.98 75.5 115.5 75.5ZM131.5 75.5C127.02 75.5 123.5 71.98 123.5 67.5C123.5 63.02 127.02 59.5 131.5 59.5C135.98 59.5 139.5 63.02 139.5 67.5C139.5 71.98 135.98 75.5 131.5 75.5ZM147.5 75.5C143.02 75.5 139.5 71.98 139.5 67.5C139.5 63.02 143.02 59.5 147.5 59.5C151.98 59.5 155.5 63.02 155.5 67.5C155.5 71.98 151.98 75.5 147.5 75.5ZM131.5 99.5C127.02 99.5 123.5 95.98 123.5 91.5C123.5 87.02 127.02 83.5 131.5 83.5C135.98 83.5 139.5 87.02 139.5 91.5C139.5 95.98 135.98 99.5 131.5 99.5ZM115.5 123.5C111.02 123.5 107.5 119.98 107.5 115.5C107.5 111.02 111.02 107.5 115.5 107.5C119.98 107.5 123.5 111.02 123.5 115.5C123.5 119.98 119.98 123.5 115.5 123.5ZM99.5 147.5C95.02 147.5 91.5 143.98 91.5 139.5C91.5 135.02 95.02 131.5 99.5 131.5C103.98 131.5 107.5 135.02 107.5 139.5C107.5 143.98 103.98 147.5 99.5 147.5ZM99.5 171.5C95.02 171.5 91.5 167.98 91.5 163.5C91.5 159.02 95.02 155.5 99.5 155.5C103.98 155.5 107.5 159.02 107.5 163.5C107.5 167.98 103.98 171.5 99.5 171.5Z" fill="#E3E3E3"/>
</svg>
