<svg width="231" height="231" viewBox="0 0 231 231" fill="none" xmlns="http://www.w3.org/2000/svg">
<circle cx="115.5" cy="99.5" r="8" transform="rotate(-90 115.5 99.5)" fill="#E3E3E3"/>
<circle cx="115.5" cy="131.5" r="8" transform="rotate(-90 115.5 131.5)" fill="#E3E3E3"/>
<circle cx="131.5" cy="99.5" r="8" transform="rotate(-90 131.5 99.5)" fill="#E3E3E3"/>
<circle cx="131.5" cy="131.5" r="8" transform="rotate(-90 131.5 131.5)" fill="#E3E3E3"/>
<circle cx="147.5" cy="99.5" r="8" transform="rotate(-90 147.5 99.5)" fill="#E3E3E3"/>
<circle cx="163.5" cy="99.5" r="8" transform="rotate(-90 163.5 99.5)" fill="#E3E3E3"/>
<circle cx="147.5" cy="131.5" r="8" transform="rotate(-90 147.5 131.5)" fill="#E3E3E3"/>
<circle cx="163.5" cy="131.5" r="8" transform="rotate(-90 163.5 131.5)" fill="#E3E3E3"/>
<circle cx="99.5" cy="99.5" r="8" transform="rotate(-90 99.5 99.5)" fill="#E3E3E3"/>
<circle cx="99.5" cy="131.5" r="8" transform="rotate(-90 99.5 131.5)" fill="#E3E3E3"/>
<circle cx="83.5" cy="99.5" r="8" transform="rotate(-90 83.5 99.5)" fill="#E3E3E3"/>
<circle cx="67.5" cy="99.5" r="8" transform="rotate(-90 67.5 99.5)" fill="#E3E3E3"/>
<circle cx="83.5" cy="131.5" r="8" transform="rotate(-90 83.5 131.5)" fill="#E3E3E3"/>
<circle cx="67.5" cy="131.5" r="8" transform="rotate(-90 67.5 131.5)" fill="#E3E3E3"/>
</svg>
