<svg width="231" height="231" viewBox="0 0 231 231" fill="none" xmlns="http://www.w3.org/2000/svg">
<circle cx="168.5" cy="155.831" r="8" fill="#E3E3E3"/>
<circle cx="136.5" cy="155.831" r="8" transform="rotate(-90 136.5 155.831)" fill="#E3E3E3"/>
<circle cx="184.5" cy="155.831" r="8" transform="rotate(-90 184.5 155.831)" fill="#E3E3E3"/>
<circle cx="152.5" cy="155.831" r="8" transform="rotate(-90 152.5 155.831)" fill="#E3E3E3"/>
<circle cx="78.5" cy="90.8314" r="8" fill="#E3E3E3"/>
<circle cx="46.5" cy="90.8314" r="8" transform="rotate(-90 46.5 90.8314)" fill="#E3E3E3"/>
<circle cx="78.5" cy="58.8314" r="8" fill="#E3E3E3"/>
<circle cx="94.5" cy="90.8314" r="8" transform="rotate(-90 94.5 90.8314)" fill="#E3E3E3"/>
<circle cx="62.5" cy="90.8314" r="8" transform="rotate(-90 62.5 90.8314)" fill="#E3E3E3"/>
<circle cx="78.5" cy="106.831" r="8" fill="#E3E3E3"/>
<circle cx="110.5" cy="90.8314" r="8" transform="rotate(-90 110.5 90.8314)" fill="#E3E3E3"/>
<circle cx="78.5" cy="74.8314" r="8" fill="#E3E3E3"/>
<circle cx="78.5" cy="122.831" r="8" fill="#E3E3E3"/>
<circle cx="134.412" cy="99.9585" r="8" transform="rotate(-60 134.412 99.9585)" fill="#E3E3E3"/>
<circle cx="118.412" cy="127.671" r="8" transform="rotate(-150 118.412 127.671)" fill="#E3E3E3"/>
<circle cx="110.412" cy="141.528" r="8" transform="rotate(-150 110.412 141.528)" fill="#E3E3E3"/>
<circle cx="102.412" cy="155.384" r="8" transform="rotate(-150 102.412 155.384)" fill="#E3E3E3"/>
<circle cx="94.4117" cy="169.24" r="8" transform="rotate(-150 94.4117 169.24)" fill="#E3E3E3"/>
<circle cx="142.412" cy="86.1021" r="8" transform="rotate(-150 142.412 86.1021)" fill="#E3E3E3"/>
<circle cx="126.412" cy="113.815" r="8" transform="rotate(-150 126.412 113.815)" fill="#E3E3E3"/>
<circle cx="150.412" cy="72.2456" r="8" transform="rotate(-150 150.412 72.2456)" fill="#E3E3E3"/>
</svg>
