<svg width="231" height="231" viewBox="0 0 231 231" fill="none" xmlns="http://www.w3.org/2000/svg">
<circle cx="115.5" cy="115.5" r="8" transform="rotate(45 115.5 115.5)" fill="#1C1C1C"/>
<circle cx="81.5589" cy="149.441" r="8" transform="rotate(45 81.5589 149.441)" fill="#1C1C1C"/>
<circle cx="149.441" cy="149.441" r="8" transform="rotate(-45 149.441 149.441)" fill="#1C1C1C"/>
<circle cx="138.127" cy="92.8727" r="8" transform="rotate(45 138.127 92.8727)" fill="#1C1C1C"/>
<circle cx="92.8726" cy="92.8726" r="8" transform="rotate(-45 92.8726 92.8726)" fill="#1C1C1C"/>
<circle cx="104.186" cy="126.814" r="8" transform="rotate(45 104.186 126.814)" fill="#1C1C1C"/>
<circle cx="126.814" cy="126.814" r="8" transform="rotate(-45 126.814 126.814)" fill="#1C1C1C"/>
<circle cx="149.441" cy="81.5589" r="8" transform="rotate(45 149.441 81.5589)" fill="#1C1C1C"/>
<circle cx="81.5589" cy="81.559" r="8" transform="rotate(-45 81.5589 81.559)" fill="#1C1C1C"/>
<circle cx="126.814" cy="104.186" r="8" transform="rotate(45 126.814 104.186)" fill="#1C1C1C"/>
<circle cx="104.186" cy="104.186" r="8" transform="rotate(-45 104.186 104.186)" fill="#1C1C1C"/>
<circle cx="92.8726" cy="138.127" r="8" transform="rotate(45 92.8726 138.127)" fill="#1C1C1C"/>
<circle cx="138.127" cy="138.127" r="8" transform="rotate(-45 138.127 138.127)" fill="#1C1C1C"/>
</svg>
