<svg width="231" height="231" viewBox="0 0 231 231" fill="none" xmlns="http://www.w3.org/2000/svg">
<circle cx="127.305" cy="94.7155" r="8" transform="rotate(-60 127.305 94.7155)" fill="#E3E3E3"/>
<circle cx="111.305" cy="122.428" r="8" transform="rotate(-150 111.305 122.428)" fill="#E3E3E3"/>
<circle cx="103.305" cy="136.285" r="8" transform="rotate(-150 103.305 136.285)" fill="#E3E3E3"/>
<circle cx="95.3047" cy="150.141" r="8" transform="rotate(-150 95.3047 150.141)" fill="#E3E3E3"/>
<circle cx="87.3047" cy="163.997" r="8" fill="#E3E3E3"/>
<circle cx="143.773" cy="163.999" r="8" fill="#E3E3E3"/>
<circle cx="143.898" cy="147.999" r="8" fill="#E3E3E3"/>
<circle cx="127.773" cy="163.999" r="8" fill="#E3E3E3"/>
<circle cx="127.898" cy="147.999" r="8" fill="#E3E3E3"/>
<circle cx="103.102" cy="83.0007" r="8" fill="#E3E3E3"/>
<circle cx="103.227" cy="67.0009" r="8" fill="#E3E3E3"/>
<circle cx="87.1016" cy="83.0007" r="8" fill="#E3E3E3"/>
<circle cx="87.2266" cy="67.0009" r="8" fill="#E3E3E3"/>
<circle cx="135.305" cy="80.859" r="8" transform="rotate(-150 135.305 80.859)" fill="#E3E3E3"/>
<circle cx="119.305" cy="108.572" r="8" transform="rotate(-150 119.305 108.572)" fill="#E3E3E3"/>
<circle cx="143.305" cy="67.0026" r="8" fill="#E3E3E3"/>
</svg>
